{"title":"Vogels rondom ons Huis ISO Dutch Klam","uid":6939087,"size":4667174046,"categoryP":"video","categoryS":"movies_dvdr","magnet":"?xt=urn:btih:657a6ceb56d67e2945ba2611b6e91c1a2f220db4&amp;dn=Vogels+rondom+ons+Huis+ISO+Dutch+Klam&amp;tr=udp%3A%2F%2Ftracker.openbittorrent.com%3A80&amp;tr=udp%3A%2F%2Fopen.demonii.com%3A1337&amp;tr=udp%3A%2F%2Ftracker.coppersurfer.tk%3A6969&amp;tr=udp%3A%2F%2Fexodus.desync.com%3A6969","seeders":0,"leechers":0,"uploader":"Klambake","files":-1,"time":1325896374,"description":"Op deze DVD staan 63 soorten tuinvogels.\n\nDutch spoken,\n63 dif birds around the home.\n\n------------------------ Dutch Friends ------------------------\n---------------------------------------------------------------\n- Bezoek ook eens mijn vrienden op: &lt;a href=&quot; http://www.Film-Test.nl&quot; rel=&quot;nofollow&quot; target=&quot;_NEW&quot;&gt; http://www.Film-Test.nl&lt;/a&gt; --\n----- voor mijn Nederlandse Sync. ondertitels ---- en meer ----\n------- http://www.Film-Test.nl ---- voor Films en meer -------\n---------------------------------------------------------------\n\nGeneral:\n\nComplete name                    : VIDEO_TS\\VTS_04_1.VOB\nFormat                           : MPEG-PS\nFile size                        : 53.5 MiB\nDuration                         : 1mn 23s\nOverall bit rate                 : 5 374 Kbps\n\nVideo:\n\nFormat                           : MPEG Video\nFormat version                   : Version 2\nFormat profile                   : Main@Main\nFormat settings, BVOP            : Yes\nFormat settings, Matrix          : Default\nDuration                         : 1mn 23s\nBit rate mode                    : Variable\nBit rate                         : 3 731 Kbps\nNominal bit rate                 : 7 000 Kbps\nWidth                            : 720 pixels\nHeight                           : 576 pixels\nDisplay aspect ratio             : 4:3\nFrame rate                       : 25.000 fps\nStandard                         : PAL\nColor space                      : YUV\nChroma subsampling               : 4:2:0\nBit depth                        : 8 bits\nScan type                        : Interlaced\nScan order                       : Bottom Field First\nCompression mode                 : Lossy\nBits/(Pixel*Frame)               : 0.360\nStream size                      : 37.1 MiB (69%)\n\nAudio:\n\nFormat                           : PCM\nFormat settings, Endianness      : Big\nFormat settings, Sign            : Signed\nMuxing mode                      : DVD-Video\nDuration                         : 1mn 23s\nBit rate mode                    : Constant\nBit rate                         : 1 536 Kbps\nChannel(s)                       : 2 channels\nChannel positions                : Front: L R\nSampling rate                    : 48.0 KHz\nBit depth                        : 16 bits\nStream size                      : 15.3 MiB (29%)\n\nText:\n\nFormat                           : RLE\nFormat/Info                      : Run-length encoding\nMuxing mode                      : DVD-Video\nDelay relative to video          : 3s 20ms\n\nMenu","torrent":{"xt":"urn:btih:657a6ceb56d67e2945ba2611b6e91c1a2f220db4","amp;dn":"Vogels+rondom+ons+Huis+ISO+Dutch+Klam","amp;tr":["udp%3A%2F%2Ftracker.openbittorrent.com%3A80","udp%3A%2F%2Fopen.demonii.com%3A1337","udp%3A%2F%2Ftracker.coppersurfer.tk%3A6969","udp%3A%2F%2Fexodus.desync.com%3A6969"],"infoHash":"657a6ceb56d67e2945ba2611b6e91c1a2f220db4","infoHashBuffer":{"type":"Buffer","data":[101,122,108,235,86,214,126,41,69,186,38,17,182,233,28,26,47,34,13,180]},"announce":[],"urlList":[]}}